<?xml version="1.0" encoding="UTF-8"?>
<svg id="Layer_2" data-name="Layer 2" xmlns="http://www.w3.org/2000/svg" xmlns:xlink="http://www.w3.org/1999/xlink" viewBox="0 0 566.23 526.54">
  <defs>
    <style>
      .cls-1 {
        font-size: 86.16px;
      }

      .cls-2 {
        fill: #fff;
      }

      .cls-3 {
        fill: url(#linear-gradient-15);
      }

      .cls-4 {
        fill: url(#linear-gradient-14);
      }

      .cls-5 {
        fill: url(#linear-gradient-6);
      }

      .cls-6 {
        fill: url(#linear-gradient-11);
      }

      .cls-7 {
        fill: #edae48;
        stroke: #fff;
      }

      .cls-7, .cls-8 {
        stroke-miterlimit: 10;
      }

      .cls-9 {
        fill: url(#linear-gradient-10);
      }

      .cls-10 {
        fill: url(#linear-gradient-16);
      }

      .cls-11 {
        letter-spacing: 0em;
      }

      .cls-11, .cls-12 {
        font-family: Montserrat-Regular, Montserrat;
      }

      .cls-11, .cls-12, .cls-13 {
        fill: #6d991f;
      }

      .cls-12 {
        letter-spacing: -.03em;
      }

      .cls-14 {
        fill: url(#linear-gradient-5);
      }

      .cls-15 {
        fill: url(#linear-gradient-7);
      }

      .cls-16 {
        fill: #f93;
        font-family: Montserrat-Bold, Montserrat;
      }

      .cls-17 {
        fill: url(#linear-gradient-9);
      }

      .cls-18 {
        fill: #88bf32;
      }

      .cls-19 {
        fill: url(#linear-gradient-3);
      }

      .cls-8 {
        fill: url(#linear-gradient);
        stroke: url(#linear-gradient-2);
      }

      .cls-20 {
        fill: url(#linear-gradient-4);
      }

      .cls-21 {
        fill: url(#linear-gradient-8);
      }

      .cls-22 {
        fill: url(#linear-gradient-12);
      }

      .cls-23 {
        fill: url(#linear-gradient-13);
      }
    </style>
    <linearGradient id="linear-gradient" x1="151.24" y1="195.51" x2="161.33" y2="258.34" gradientTransform="translate(39.86 -22.69) rotate(9.49)" gradientUnits="userSpaceOnUse">
      <stop offset=".44" stop-color="#f93"/>
      <stop offset="1" stop-color="#ffd42d"/>
    </linearGradient>
    <linearGradient id="linear-gradient-2" x1="96.29" y1="228.74" x2="216.87" y2="228.74" gradientTransform="translate(39.86 -22.69) rotate(9.49)" gradientUnits="userSpaceOnUse">
      <stop offset=".44" stop-color="#f93"/>
      <stop offset="1" stop-color="#ffd42d"/>
    </linearGradient>
    <linearGradient id="linear-gradient-3" x1="85.2" y1="285.75" x2="75.2" y2="194.5" gradientTransform="translate(40.92 -9.94) rotate(9.49)" gradientUnits="userSpaceOnUse">
      <stop offset=".43" stop-color="#549933"/>
      <stop offset=".81" stop-color="#9ec625"/>
    </linearGradient>
    <linearGradient id="linear-gradient-4" x1="188.67" y1="188.78" x2="566.23" y2="188.78" gradientUnits="userSpaceOnUse">
      <stop offset="0" stop-color="#6d991f"/>
      <stop offset="1" stop-color="#9ec625"/>
    </linearGradient>
    <linearGradient id="linear-gradient-5" x1="329.41" y1="184.61" x2="426.58" y2="184.61" gradientTransform="matrix(1, 0, 0, 1, 0, 0)" xlink:href="#linear-gradient"/>
    <linearGradient id="linear-gradient-6" x1="329.41" y1="184.61" x2="426.58" y2="184.61" gradientTransform="matrix(1, 0, 0, 1, 0, 0)" xlink:href="#linear-gradient"/>
    <linearGradient id="linear-gradient-7" x1="329.41" y1="184.61" x2="426.58" y2="184.61" gradientTransform="matrix(1, 0, 0, 1, 0, 0)" xlink:href="#linear-gradient"/>
    <linearGradient id="linear-gradient-8" x1="329.41" y1="184.61" x2="426.58" y2="184.61" gradientTransform="matrix(1, 0, 0, 1, 0, 0)" xlink:href="#linear-gradient"/>
    <linearGradient id="linear-gradient-9" x1="329.41" y1="184.61" x2="426.58" y2="184.61" gradientTransform="matrix(1, 0, 0, 1, 0, 0)" xlink:href="#linear-gradient"/>
    <linearGradient id="linear-gradient-10" x1="329.41" y1="184.61" x2="426.58" y2="184.61" gradientTransform="matrix(1, 0, 0, 1, 0, 0)" xlink:href="#linear-gradient"/>
    <linearGradient id="linear-gradient-11" x1="329.41" y1="184.61" x2="426.58" y2="184.61" gradientTransform="matrix(1, 0, 0, 1, 0, 0)" xlink:href="#linear-gradient"/>
    <linearGradient id="linear-gradient-12" x1="329.41" y1="184.61" x2="426.58" y2="184.61" gradientTransform="matrix(1, 0, 0, 1, 0, 0)" xlink:href="#linear-gradient"/>
    <linearGradient id="linear-gradient-13" x1="329.41" y1="184.61" x2="426.58" y2="184.61" gradientTransform="matrix(1, 0, 0, 1, 0, 0)" xlink:href="#linear-gradient"/>
    <linearGradient id="linear-gradient-14" x1="329.41" y1="184.61" x2="426.58" y2="184.61" gradientTransform="matrix(1, 0, 0, 1, 0, 0)" xlink:href="#linear-gradient"/>
    <linearGradient id="linear-gradient-15" x1="447.28" y1="164.77" x2="508.87" y2="164.77" xlink:href="#linear-gradient-4"/>
    <linearGradient id="linear-gradient-16" x1="243.34" y1="164.77" x2="304.93" y2="164.77" xlink:href="#linear-gradient-4"/>
  </defs>
  <g id="Layer_1-2" data-name="Layer 1">
    <g>
      <text class="cls-1" transform="translate(53.58 503.62)"><tspan class="cls-12" x="0" y="0">F</tspan><tspan class="cls-11" x="51.7" y="0">ARM</tspan><tspan class="cls-16" x="258.05" y="0">OBS</tspan></text>
      <g>
        <g>
          <rect class="cls-8" x="97.2" y="210.3" width="118.75" height="36.88" rx="12" ry="12" transform="translate(-35.57 28.95) rotate(-9.49)"/>
          <rect class="cls-19" x="2.45" y="212.73" width="155.82" height="57.5" rx="8.13" ry="8.13" transform="translate(-38.72 16.55) rotate(-9.49)"/>
        </g>
        <circle class="cls-20" cx="377.45" cy="188.78" r="188.75"/>
        <circle class="cls-2" cx="376.1" cy="190.23" r="161.61"/>
        <path class="cls-18" d="M402.99,290.9c-4.17,2.54-8.24,5.12-12.2,7.71-12.17,7.96-23.37,16.14-33.66,24.53-5.37,4.38-10.49,8.81-15.37,13.3,11.23,2.35,22.98,3.6,35.07,3.6,1.85,0,3.68-.03,5.5-.09,8.85-.28,17.49-1.22,25.87-2.78,6.51-6.09,13.6-12.42,21.24-18.99,3.45-2.96,7-5.97,10.67-9.02,13.25-11.02,25.02-20.44,41.11-32.67,10.55-8.01,21.32-12.89,33.04-21.4,.06-.21,7.29-14.93,8.43-18.37-24.09,8.73-47.83,16.87-68.11,26.48-18.74,8.88-35.91,18.12-51.6,27.7Z"/>
        <g>
          <path class="cls-18" d="M233.27,244.1c1.26,4.65,2.82,9.2,4.67,13.64,15.76,7.08,30.54,14.08,44.33,20.99,7.49,3.75,14.67,7.47,21.56,11.17,7.67-4.69,15.68-9.24,24.05-13.66,3.16-1.67,6.37-3.31,9.63-4.94-8.55-3.16-17.37-6.21-26.49-9.14-24.07-7.73-50.16-14.64-78.42-20.67,.21,.88,.43,1.75,.67,2.62Z"/>
          <path class="cls-13" d="M243.91,269.95c8.11,14.39,19.37,27.25,33.02,37.94,5.98-4.39,12.22-8.69,18.73-12.87-1.29-.72-2.58-1.43-3.88-2.15-15.1-8.27-31.26-16.33-48.54-24.15,.23,.41,.45,.82,.68,1.23Z"/>
          <path class="cls-13" d="M446.61,311.16c-9.72,8.07-18.67,16.24-26.88,24.49,41.67-10.75,75.5-36.75,92.48-70.34-2.41,1.44-4.79,2.88-7.14,4.33-17.38,10.69-33.15,21.57-47.41,32.64-3.8,2.94-7.48,5.9-11.06,8.88Z"/>
          <path class="cls-13" d="M228.65,233.51c39.22,9.9,76.63,19.9,107.5,30.39,3.28,1.11,6.5,2.23,9.68,3.34,7.32-3.48,14.89-6.87,22.71-10.16,7.82-3.29,15.91-6.48,24.25-9.56,2.12-.78,4.26-1.56,6.42-2.33-4.04-.99-8.1-1.95-12.23-2.87-46.12-10.33-101.69-16.84-160.62-19,.22,3.35,1.76,6.91,2.29,10.18Z"/>
          <path class="cls-13" d="M526.2,217.79c-9.05,1.81-17.9,3.7-26.54,5.67,8.87,.06,17.54,0,26.42,.04-.04-2.42,.11-4.67,.12-5.71Z"/>
          <path class="cls-13" d="M406.78,249.56c-2.18,.77-4.33,1.54-6.47,2.32-16.84,6.14-32.6,12.68-47.37,19.6,0,0,0,0,0,0-1.31,.61-2.61,1.23-3.9,1.85-1.51,.72-3.01,1.45-4.49,2.18,0,0,0,0,0,0-3.29,1.62-6.52,3.25-9.71,4.91-8.44,4.39-16.53,8.92-24.26,13.58,0,0,0,0,0,0-1.6,.96-3.17,1.92-4.74,2.9-1.18,.73-2.35,1.47-3.5,2.21-6.69,4.25-13.1,8.6-19.24,13.05,1.79,1.39,3.61,2.75,5.48,4.06,0,0,0,0,0,0,9.1,6.42,19.31,10.18,30.11,14.62,4.7,1.94,11.31,3.45,16.27,4.96-.16,.16-.33,.33,0,0,4.82-4.81,10.29-9.71,16.39-14.71,9.22-7.54,19.88-15.27,31.96-23.18,3.86-2.53,7.87-5.08,12.03-7.64,14.37-8.88,30.47-17.97,48.26-27.25,24.3-12.66,49.72-20.56,82.37-33.13,.07-1.52,.12-4.27,.11-6.4-8.96-.05-17.75-.11-26.69-.17-33.89,7.6-64.69,16.38-92.61,26.23,0,0,0,0,0,0Z"/>
        </g>
        <g>
          <g>
            <path class="cls-7" d="M378.25,328.09c-5.18,0-3.07-227.06,0-227.06s5.56,227.06,0,227.06Z"/>
            <path class="cls-7" d="M376.94,293.82s-.1-.44-.37-1.21c-1.36-3.95-7.1-16.66-26.49-24.83-23.19-9.77-22.38-34.18-18.72-46.79,0,0,39.06,9.77,47.2,45.17l-1.63,27.67Z"/>
            <path class="cls-7" d="M377.04,250.69s-.09-.41-.34-1.14c-1.28-3.72-6.69-15.7-24.96-23.39-21.85-9.2-21.08-32.2-17.63-44.08,0,0,36.8,9.2,44.47,42.55l-1.53,26.07Z"/>
            <path class="cls-7" d="M377.13,209.18s-.09-.39-.32-1.07c-1.2-3.49-6.28-14.73-23.42-21.95-20.51-8.63-19.79-30.22-16.55-41.37,0,0,34.54,8.63,41.73,39.93l-1.44,24.46Z"/>
            <path class="cls-7" d="M377.25,165.64s-.08-.35-.3-.98c-1.1-3.2-5.75-13.5-21.46-20.11-18.79-7.91-18.13-27.69-15.16-37.91,0,0,31.64,7.91,38.24,36.59l-1.32,22.41Z"/>
            <path class="cls-7" d="M379.05,293.82s.1-.44,.37-1.21c1.36-3.95,7.1-16.66,26.49-24.83,23.19-9.77,22.38-34.18,18.72-46.79,0,0-39.06,9.77-47.2,45.17l1.63,27.67Z"/>
            <path class="cls-7" d="M378.96,250.69s.09-.41,.34-1.14c1.28-3.72,6.69-15.7,24.96-23.39,21.85-9.2,21.08-32.2,17.63-44.08,0,0-36.8,9.2-44.47,42.55l1.53,26.07Z"/>
            <path class="cls-7" d="M378.87,209.18s.09-.39,.32-1.07c1.2-3.49,6.28-14.73,23.42-21.95,20.51-8.63,19.79-30.22,16.55-41.37,0,0-34.54,8.63-41.73,39.93l1.44,24.46Z"/>
            <path class="cls-7" d="M378.75,165.64s.08-.35,.3-.98c1.1-3.2,5.75-13.5,21.46-20.11,18.79-7.91,18.13-27.69,15.16-37.91,0,0-31.64,7.91-38.24,36.59l1.32,22.41Z"/>
            <path class="cls-7" d="M377.76,118.44s-15.46-19.51-15.46-37.55,17.9-39.76,17.9-39.76c0,0,13.84,26.78,13.84,41.5s-16.28,35.81-16.28,35.81Z"/>
          </g>
          <g>
            <path class="cls-2" d="M378.25,334.09c-2.02,0-5.57-.89-6.69-6.88-.28-1.48-.52-3.52-.74-6.23-.39-4.79-.73-11.76-.99-20.72-.47-16.06-.72-38.54-.72-65,0-30.68,.35-64.61,.93-90.78,.3-13.39,.63-24.02,1-31.6,.2-4.01,.4-7.12,.61-9.25,.25-2.58,.84-8.61,6.6-8.61s6.34,5.87,6.61,8.69c.21,2.18,.43,5.36,.63,9.46,.38,7.66,.75,18.82,1.06,32.28,.62,27.01,1,61.47,1,92.18,0,25.94-.26,47.88-.75,63.46-.28,8.72-.63,15.5-1.04,20.16-.54,6.02-1.15,12.83-7.5,12.83Z"/>
            <path class="cls-2" d="M371.1,295.21c-.02-.09-.09-.31-.2-.64-1.09-3.16-5.97-14.02-23.15-21.26-26.61-11.2-26.44-39.21-22.15-54l1.61-5.55,5.61,1.4c1.74,.44,42.73,11.1,51.59,49.64l.19,.84-1.68,28.53-11.37,.93-.46,.11Z"/>
            <path class="cls-2" d="M371.2,252.08c-.02-.08-.08-.28-.18-.58-1.01-2.94-5.56-13.06-21.61-19.81-25.29-10.65-25.14-37.25-21.07-51.29l1.61-5.55,5.61,1.4c1.65,.41,40.47,10.51,48.86,47.03l.19,.84-1.58,26.93-11.34,.92-.49,.12Z"/>
            <path class="cls-2" d="M371.29,210.57c-.02-.08-.07-.25-.16-.51-.94-2.72-5.16-12.09-20.08-18.38-20.98-8.83-25.15-30.76-19.98-48.57l1.61-5.55,5.61,1.4c1.56,.39,38.2,9.92,46.12,44.41l.19,.84-1.49,25.32-11.3,.92-.52,.12Z"/>
            <path class="cls-2" d="M371.42,167.05c-.02-.07-.06-.22-.14-.44-.84-2.44-4.64-10.86-18.11-16.53-19.51-8.21-23.4-28.57-18.6-45.11l1.61-5.55,5.61,1.4c1.44,.36,35.3,9.17,42.63,41.06l.19,.84-1.37,23.27-11.28,.92-.54,.13Z"/>
            <path class="cls-2" d="M373.07,294.17l-1.68-28.53,.19-.84c8.86-38.54,49.85-49.21,51.59-49.64l5.61-1.4,1.61,5.55c4.29,14.78,4.46,42.79-22.15,54-17.17,7.23-22.06,18.1-23.15,21.25-.11,.33-.18,.56-.2,.65l-11.83-1.03Z"/>
            <path class="cls-2" d="M372.97,251.04l-1.58-26.93,.19-.84c8.39-36.51,47.21-46.61,48.86-47.03l5.61-1.4,1.61,5.55c4.08,14.04,4.23,40.64-21.07,51.29-16.04,6.75-20.6,16.87-21.61,19.81-.1,.3-.16,.5-.18,.58l-11.83-1.04Z"/>
            <path class="cls-2" d="M372.88,209.53l-1.49-25.32,.19-.84c7.93-34.49,44.57-44.02,46.12-44.41l5.61-1.4,1.61,5.55c5.17,17.81,1,39.74-19.98,48.58-14.92,6.28-19.14,15.65-20.08,18.38-.09,.26-.14,.44-.16,.51l-11.83-1.04Z"/>
            <path class="cls-2" d="M372.76,165.99l-1.37-23.27,.19-.84c7.33-31.89,41.19-40.7,42.63-41.06l5.61-1.4,1.61,5.55c4.8,16.53,.91,36.89-18.6,45.11-13.48,5.67-17.27,14.09-18.11,16.54-.08,.22-.12,.37-.14,.44l-11.82-1.06Z"/>
            <path class="cls-2" d="M373.05,122.17c-.68-.86-16.76-21.38-16.76-41.28s18.49-42.62,19.27-43.58l5.79-7.02,4.18,8.08c1.48,2.87,14.5,28.53,14.5,44.26s-15.71,37.08-17.5,39.44l-4.68,6.16-4.8-6.06Z"/>
          </g>
          <g>
            <path class="cls-14" d="M378.25,328.09c-5.18,0-3.07-227.06,0-227.06s5.56,227.06,0,227.06Z"/>
            <path class="cls-5" d="M376.94,293.82s-.1-.44-.37-1.21c-1.36-3.95-7.1-16.66-26.49-24.83-23.19-9.77-22.38-34.18-18.72-46.79,0,0,39.06,9.77,47.2,45.17l-1.63,27.67Z"/>
            <path class="cls-15" d="M377.04,250.69s-.09-.41-.34-1.14c-1.28-3.72-6.69-15.7-24.96-23.39-21.85-9.2-21.08-32.2-17.63-44.08,0,0,36.8,9.2,44.47,42.55l-1.53,26.07Z"/>
            <path class="cls-21" d="M377.13,209.18s-.09-.39-.32-1.07c-1.2-3.49-6.28-14.73-23.42-21.95-20.51-8.63-19.79-30.22-16.55-41.37,0,0,34.54,8.63,41.73,39.93l-1.44,24.46Z"/>
            <path class="cls-17" d="M377.25,165.64s-.08-.35-.3-.98c-1.1-3.2-5.75-13.5-21.46-20.11-18.79-7.91-18.13-27.69-15.16-37.91,0,0,31.64,7.91,38.24,36.59l-1.32,22.41Z"/>
            <path class="cls-9" d="M379.05,293.82s.1-.44,.37-1.21c1.36-3.95,7.1-16.66,26.49-24.83,23.19-9.77,22.38-34.18,18.72-46.79,0,0-39.06,9.77-47.2,45.17l1.63,27.67Z"/>
            <path class="cls-6" d="M378.96,250.69s.09-.41,.34-1.14c1.28-3.72,6.69-15.7,24.96-23.39,21.85-9.2,21.08-32.2,17.63-44.08,0,0-36.8,9.2-44.47,42.55l1.53,26.07Z"/>
            <path class="cls-22" d="M378.87,209.18s.09-.39,.32-1.07c1.2-3.49,6.28-14.73,23.42-21.95,20.51-8.63,19.79-30.22,16.55-41.37,0,0-34.54,8.63-41.73,39.93l1.44,24.46Z"/>
            <path class="cls-23" d="M378.75,165.64s.08-.35,.3-.98c1.1-3.2,5.75-13.5,21.46-20.11,18.79-7.91,18.13-27.69,15.16-37.91,0,0-31.64,7.91-38.24,36.59l1.32,22.41Z"/>
            <path class="cls-4" d="M377.76,118.44s-15.46-19.51-15.46-37.55,17.9-39.76,17.9-39.76c0,0,13.84,26.78,13.84,41.5s-16.28,35.81-16.28,35.81Z"/>
          </g>
        </g>
        <g>
          <path class="cls-3" d="M507.2,127.6s-57.64,8.26-59.92,72.69c8.03-12.41,25.75-33.67,34.09-37.4-2.7,7.69-18.68,27.79-28.47,39.06,17-5.77,65.55-26.67,54.3-74.34Z"/>
          <path class="cls-10" d="M270.84,162.88c8.34,3.73,26.06,25,34.09,37.4-2.29-64.43-59.92-72.69-59.92-72.69-11.24,47.67,37.31,68.57,54.3,74.34-9.79-11.27-25.78-31.36-28.47-39.06Z"/>
        </g>
      </g>
    </g>
  </g>
</svg>